<?xml version="1.0" encoding="utf-8"?>
<!-- Generator: Adobe Illustrator 21.1.0, SVG Export Plug-In . SVG Version: 6.00 Build 0)  -->
<svg version="1.1" id="Layer_1" xmlns="http://www.w3.org/2000/svg" xmlns:xlink="http://www.w3.org/1999/xlink" x="0px" y="0px"
	 viewBox="0 0 209.6 219" style="enable-background:new 0 0 209.6 219;" xml:space="preserve">
<style type="text/css">
	.st0{fill:#FFFFFF;}
</style>
<path class="st0" d="M126.3,175.1h-43v-6.8c0-3.8,3.1-6.8,6.8-6.8h29.4c3.8,0,6.8,3.1,6.8,6.8V175.1z"/>
<path d="M126.8,175.6h-44v-7.3c0-4,3.3-7.3,7.3-7.3h29.4c4,0,7.3,3.3,7.3,7.3V175.6z M83.8,174.6h42v-6.3c0-3.5-2.8-6.3-6.3-6.3
	H90.1c-3.5,0-6.3,2.8-6.3,6.3V174.6z"/>
<path class="st0" d="M139.3,185.2H70.2v-3.3c0-3.8,3.1-6.8,6.8-6.8h55.5c3.8,0,6.8,3.1,6.8,6.8V185.2z"/>
<path d="M139.8,185.7H69.7v-3.8c0-4,3.3-7.3,7.3-7.3h55.5c4,0,7.3,3.3,7.3,7.3V185.7z M70.7,184.7h68.1v-2.8c0-3.5-2.8-6.3-6.3-6.3
	H77c-3.5,0-6.3,2.8-6.3,6.3V184.7z"/>
<path d="M112.4,161.9H97.2v-33.7c-2-0.8-12.1-5.3-21.6-20.3c-18.3-5-31.1-13.8-38.1-26.2c-9.7-17-4.5-34.3-4.3-35.1l0.9-3H59
	c-0.1-3.3-0.2-6.6-0.2-10v-0.5h92v0.5c0,3.3-0.1,6.7-0.2,10h24.8l0.9,3c0.2,0.7,5.4,18.1-4.3,35.1c-6.9,12.1-19.3,20.8-37,25.9
	c-9.7,16.1-20.5,20-22.7,20.7V161.9z M98.2,160.9h13.2v-33.4l0.4-0.1c0.1,0,12.1-3.1,22.5-20.5l0.1-0.2l0.2-0.1
	c17.5-5,29.8-13.6,36.6-25.5c9.4-16.6,4.4-33.6,4.2-34.3l-0.7-2.2h-25.1l0-0.5c0.1-3.3,0.2-6.7,0.2-9.9h-90c0,3.3,0.1,6.7,0.2,9.9
	l0,0.5H34.9L34.2,47C34,47.7,29,64.6,38.4,81.3C45.3,93.4,58,102.1,76.1,107l0.2,0.1l0.1,0.2c10.1,16.2,21.4,20.2,21.5,20.2l0.3,0.1
	V160.9z M71.9,99.1l-1.1-0.4C58.1,94.1,49.1,87.2,44,78.2c-6-10.4-5.2-21.2-4.3-26.7l0.1-0.4h20.6l0,0.5
	c1.4,18.1,5.1,33.7,10.9,46.4L71.9,99.1z M40.6,52.1c-0.9,5.5-1.4,15.7,4.2,25.6l0,0c4.9,8.5,13.3,15.1,25.1,19.6
	c-5.6-12.5-9.1-27.7-10.5-45.2H40.6z M138.5,98.8l0.5-1.1c5.4-12.5,8.8-28,10.1-46.1l0-0.5h20.6l0.1,0.4c1,5.5,1.7,16.2-4.3,26.7
	l-0.4-0.2l0.4,0.2c-5,8.8-13.7,15.5-25.9,20.1L138.5,98.8z M150.1,52.1c-1.3,17.5-4.6,32.6-9.7,44.9c11.4-4.5,19.6-11,24.3-19.3
	c5.7-9.9,5.1-20.1,4.2-25.6H150.1z"/>
<g>
	<path d="M111.6,98h-12V67.8l-6.7,1.5l-2.4-9.6l12.5-3.5h8.7V98z M100.5,97h10V57.2H103l-11.3,3.2l1.9,7.7l7-1.6V97z"/>
</g>
</svg>
